# xmcd
#
# Track frame offsets:
#	150
#	15835
#	26249
#	42150
#	52324
#	63491
#	71624
#	90855
#	106539
#	120385
#	132403
#	147594
#	159571
#	171681
#
# Disc length: 2473 seconds
#
# Revision: 0
# Processed by: cddbd v1.4PL0 Copyright (c) Steve Scherf et al.
# Submitted via: audiograbber 1.81.02
#
DISCID=c009a70e
DTITLE=Cotton Eyed Joe - Texas Dance Favorites
DYEAR=1999
DGENRE=Country
TTITLE0=Cotton-Eyed Joe (No Calls)
TTITLE1=Texas Schottische
TTITLE2=Faded Love - Maiden's Prayer Medley
TTITLE3=San Antonio Rose
TTITLE4=I'm So Lonesome I Could Cry
TTITLE5=Steel Guitar Rag
TTITLE6=Night Life
TTITLE7=Cotton-Eyed Joe (With Calls)
TTITLE8=Jole' Blon Waltz
TTITLE9=Lone Star Polka
TTITLE10=Today I Started Loving You Again
TTITLE11=Orange Blossom Special
TTITLE12=I'd Be A Legend In My Time
TTITLE13=West Texas Waltz
EXTD=
EXTT0=
EXTT1=
EXTT2=
EXTT3=
EXTT4=
EXTT5=
EXTT6=
EXTT7=
EXTT8=
EXTT9=
EXTT10=
EXTT11=
EXTT12=
EXTT13=
PLAYORDER=
